<mxfile host="app.diagrams.net" modified="2024-06-10T06:38:22.459Z" agent="Mozilla/5.0 (Windows NT 10.0; Win64; x64) AppleWebKit/537.36 (KHTML, like Gecko) Chrome/125.0.0.0 Safari/537.36 Edg/125.0.0.0" version="24.5.2" etag="dmsz1i_8ewqGViicwmvc" type="github">
  <diagram name="第 1 页" id="f_S3ir-GqfTAVbZNz9qE">
    <mxGraphModel>
      <root>
        <mxCell id="0" />
        <mxCell id="1" parent="0" />
      </root>
    </mxGraphModel>
  </diagram>
</mxfile>
